<svg width="41" height="40" viewBox="0 0 41 40" fill="none" xmlns="http://www.w3.org/2000/svg">
<g clip-path="url(#clip0_343_107)">
<path d="M14.7812 0C17.1953 0 19.1562 1.96094 19.1562 4.375V35.625C19.1562 38.0391 17.1953 40 14.7812 40C12.5234 40 10.6641 38.2891 10.4297 36.0859C10.0234 36.1953 9.59375 36.25 9.15625 36.25C6.39844 36.25 4.15625 34.0078 4.15625 31.25C4.15625 30.6719 4.25781 30.1094 4.4375 29.5938C2.07812 28.7031 0.40625 26.4219 0.40625 23.75C0.40625 21.2578 1.86719 19.1016 3.98438 18.1016C3.30469 17.25 2.90625 16.1719 2.90625 15C2.90625 12.6016 4.59375 10.6016 6.84375 10.1094C6.71875 9.67969 6.65625 9.21875 6.65625 8.75C6.65625 6.41406 8.26562 4.44531 10.4297 3.89844C10.6641 1.71094 12.5234 0 14.7812 0ZM26.0312 0C28.2891 0 30.1406 1.71094 30.3828 3.89844C32.5547 4.44531 34.1562 6.40625 34.1562 8.75C34.1562 9.21875 34.0938 9.67969 33.9688 10.1094C36.2188 10.5937 37.9062 12.6016 37.9062 15C37.9062 16.1719 37.5078 17.25 36.8281 18.1016C38.9453 19.1016 40.4062 21.2578 40.4062 23.75C40.4062 26.4219 38.7344 28.7031 36.375 29.5938C36.5547 30.1094 36.6562 30.6719 36.6562 31.25C36.6562 34.0078 34.4141 36.25 31.6562 36.25C31.2188 36.25 30.7891 36.1953 30.3828 36.0859C30.1484 38.2891 28.2891 40 26.0312 40C23.6172 40 21.6562 38.0391 21.6562 35.625V4.375C21.6562 1.96094 23.6172 0 26.0312 0Z" fill="#15C65B"/>
</g>
<defs>
<clipPath id="clip0_343_107">
<path d="M0.40625 0H40.4062V40H0.40625V0Z" fill="white"/>
</clipPath>
</defs>
</svg>
