<svg width="22" height="24" viewBox="0 0 22 24" fill="none" xmlns="http://www.w3.org/2000/svg">
<g clip-path="url(#clip0_160_75)">
<path d="M4.73438 0C2.25 0 0.234375 2.01562 0.234375 4.5V19.5C0.234375 21.9844 2.25 24 4.73438 24H18.2344H19.7344C20.5641 24 21.2344 23.3297 21.2344 22.5C21.2344 21.6703 20.5641 21 19.7344 21V18C20.5641 18 21.2344 17.3297 21.2344 16.5V1.5C21.2344 0.670312 20.5641 0 19.7344 0H18.2344H4.73438ZM4.73438 18H16.7344V21H4.73438C3.90469 21 3.23438 20.3297 3.23438 19.5C3.23438 18.6703 3.90469 18 4.73438 18ZM6.23438 6.75C6.23438 6.3375 6.57188 6 6.98438 6H15.9844C16.3969 6 16.7344 6.3375 16.7344 6.75C16.7344 7.1625 16.3969 7.5 15.9844 7.5H6.98438C6.57188 7.5 6.23438 7.1625 6.23438 6.75ZM6.98438 9H15.9844C16.3969 9 16.7344 9.3375 16.7344 9.75C16.7344 10.1625 16.3969 10.5 15.9844 10.5H6.98438C6.57188 10.5 6.23438 10.1625 6.23438 9.75C6.23438 9.3375 6.57188 9 6.98438 9Z" fill="#15C65B"/>
</g>
<defs>
<clipPath id="clip0_160_75">
<path d="M0.234375 0H21.2344V24H0.234375V0Z" fill="white"/>
</clipPath>
</defs>
</svg>
