<svg width="19" height="32" viewBox="0 0 19 32" fill="none" xmlns="http://www.w3.org/2000/svg">
<path d="M18.7344 32H0.734375V0H18.7344V32Z" stroke="#E5E7EB"/>
<g clip-path="url(#clip0_160_63)">
<path d="M3.73438 5C2.07969 5 0.734375 6.34531 0.734375 8V26C0.734375 27.6547 2.07969 29 3.73438 29H15.7344C17.3891 29 18.7344 27.6547 18.7344 26V8C18.7344 6.34531 17.3891 5 15.7344 5H3.73438ZM5.23438 8H14.2344C15.0641 8 15.7344 8.67031 15.7344 9.5V11C15.7344 11.8297 15.0641 12.5 14.2344 12.5H5.23438C4.40469 12.5 3.73438 11.8297 3.73438 11V9.5C3.73438 8.67031 4.40469 8 5.23438 8ZM6.73438 15.5C6.73438 15.8978 6.57634 16.2794 6.29504 16.5607C6.01373 16.842 5.6322 17 5.23438 17C4.83655 17 4.45502 16.842 4.17371 16.5607C3.89241 16.2794 3.73438 15.8978 3.73438 15.5C3.73438 15.1022 3.89241 14.7206 4.17371 14.4393C4.45502 14.158 4.83655 14 5.23438 14C5.6322 14 6.01373 14.158 6.29504 14.4393C6.57634 14.7206 6.73438 15.1022 6.73438 15.5ZM5.23438 21.5C4.83655 21.5 4.45502 21.342 4.17371 21.0607C3.89241 20.7794 3.73438 20.3978 3.73438 20C3.73438 19.6022 3.89241 19.2206 4.17371 18.9393C4.45502 18.658 4.83655 18.5 5.23438 18.5C5.6322 18.5 6.01373 18.658 6.29504 18.9393C6.57634 19.2206 6.73438 19.6022 6.73438 20C6.73438 20.3978 6.57634 20.7794 6.29504 21.0607C6.01373 21.342 5.6322 21.5 5.23438 21.5ZM3.73438 24.5C3.73438 23.6703 4.40469 23 5.23438 23H9.73438C10.5641 23 11.2344 23.6703 11.2344 24.5C11.2344 25.3297 10.5641 26 9.73438 26H5.23438C4.40469 26 3.73438 25.3297 3.73438 24.5ZM9.73438 17C9.33655 17 8.95502 16.842 8.67372 16.5607C8.39241 16.2794 8.23438 15.8978 8.23438 15.5C8.23438 15.1022 8.39241 14.7206 8.67372 14.4393C8.95502 14.158 9.33655 14 9.73438 14C10.1322 14 10.5137 14.158 10.795 14.4393C11.0763 14.7206 11.2344 15.1022 11.2344 15.5C11.2344 15.8978 11.0763 16.2794 10.795 16.5607C10.5137 16.842 10.1322 17 9.73438 17ZM11.2344 20C11.2344 20.3978 11.0763 20.7794 10.795 21.0607C10.5137 21.342 10.1322 21.5 9.73438 21.5C9.33655 21.5 8.95502 21.342 8.67372 21.0607C8.39241 20.7794 8.23438 20.3978 8.23438 20C8.23438 19.6022 8.39241 19.2206 8.67372 18.9393C8.95502 18.658 9.33655 18.5 9.73438 18.5C10.1322 18.5 10.5137 18.658 10.795 18.9393C11.0763 19.2206 11.2344 19.6022 11.2344 20ZM14.2344 17C13.8366 17 13.455 16.842 13.1737 16.5607C12.8924 16.2794 12.7344 15.8978 12.7344 15.5C12.7344 15.1022 12.8924 14.7206 13.1737 14.4393C13.455 14.158 13.8366 14 14.2344 14C14.6322 14 15.0137 14.158 15.295 14.4393C15.5763 14.7206 15.7344 15.1022 15.7344 15.5C15.7344 15.8978 15.5763 16.2794 15.295 16.5607C15.0137 16.842 14.6322 17 14.2344 17ZM15.7344 20C15.7344 20.3978 15.5763 20.7794 15.295 21.0607C15.0137 21.342 14.6322 21.5 14.2344 21.5C13.8366 21.5 13.455 21.342 13.1737 21.0607C12.8924 20.7794 12.7344 20.3978 12.7344 20C12.7344 19.6022 12.8924 19.2206 13.1737 18.9393C13.455 18.658 13.8366 18.5 14.2344 18.5C14.6322 18.5 15.0137 18.658 15.295 18.9393C15.5763 19.2206 15.7344 19.6022 15.7344 20ZM14.2344 26C13.8366 26 13.455 25.842 13.1737 25.5607C12.8924 25.2794 12.7344 24.8978 12.7344 24.5C12.7344 24.1022 12.8924 23.7206 13.1737 23.4393C13.455 23.158 13.8366 23 14.2344 23C14.6322 23 15.0137 23.158 15.295 23.4393C15.5763 23.7206 15.7344 24.1022 15.7344 24.5C15.7344 24.8978 15.5763 25.2794 15.295 25.5607C15.0137 25.842 14.6322 26 14.2344 26Z" fill="#15C65B"/>
</g>
<defs>
<clipPath id="clip0_160_63">
<path d="M0.734375 5H18.7344V29H0.734375V5Z" fill="white"/>
</clipPath>
</defs>
</svg>
