<svg width="36" height="40" viewBox="0 0 36 40" fill="none" xmlns="http://www.w3.org/2000/svg">
<g clip-path="url(#clip0_343_77)">
<path d="M35.5 6.25V10C35.5 13.4531 27.6641 16.25 18 16.25C8.33594 16.25 0.5 13.4531 0.5 10V6.25C0.5 2.79688 8.33594 0 18 0C27.6641 0 35.5 2.79688 35.5 6.25ZM31.2188 16.7734C32.8438 16.1953 34.3359 15.4531 35.5 14.5391V22.5C35.5 25.9531 27.6641 28.75 18 28.75C8.33594 28.75 0.5 25.9531 0.5 22.5V14.5391C1.66406 15.4609 3.15625 16.1953 4.78125 16.7734C8.28906 18.0234 12.9609 18.75 18 18.75C23.0391 18.75 27.7109 18.0234 31.2188 16.7734ZM0.5 27.0391C1.66406 27.9609 3.15625 28.6953 4.78125 29.2734C8.28906 30.5234 12.9609 31.25 18 31.25C23.0391 31.25 27.7109 30.5234 31.2188 29.2734C32.8438 28.6953 34.3359 27.9531 35.5 27.0391V33.75C35.5 37.2031 27.6641 40 18 40C8.33594 40 0.5 37.2031 0.5 33.75V27.0391Z" fill="#15C65B"/>
</g>
<defs>
<clipPath id="clip0_343_77">
<path d="M0.5 0H35.5V40H0.5V0Z" fill="white"/>
</clipPath>
</defs>
</svg>
