<svg width="50" height="40" viewBox="0 0 50 40" fill="none" xmlns="http://www.w3.org/2000/svg">
<path d="M50 40H0V0H50V40Z" stroke="#E5E7EB"/>
<path d="M5 7.5C5 4.74219 7.24219 2.5 10 2.5H40C42.7578 2.5 45 4.74219 45 7.5V27.5H40V7.5H10V27.5H5V7.5ZM0 31.5C0 30.6719 0.671875 30 1.5 30H48.5C49.3281 30 50 30.6719 50 31.5C50 34.8125 47.3125 37.5 44 37.5H6C2.6875 37.5 0 34.8125 0 31.5ZM21.9531 16.3281L19.5312 18.75L21.9531 21.1719C22.6875 21.9062 22.6875 23.0938 21.9531 23.8203C21.2188 24.5469 20.0312 24.5547 19.3047 23.8203L15.5547 20.0703C14.8203 19.3359 14.8203 18.1484 15.5547 17.4219L19.3047 13.6719C20.0391 12.9375 21.2266 12.9375 21.9531 13.6719C22.6797 14.4062 22.6875 15.5937 21.9531 16.3203V16.3281ZM30.7031 13.6719L34.4531 17.4219C35.1875 18.1562 35.1875 19.3438 34.4531 20.0703L30.7031 23.8203C29.9688 24.5547 28.7812 24.5547 28.0547 23.8203C27.3281 23.0859 27.3203 21.8984 28.0547 21.1719L30.4766 18.75L28.0547 16.3281C27.3203 15.5938 27.3203 14.4063 28.0547 13.6797C28.7891 12.9531 29.9766 12.9453 30.7031 13.6797V13.6719Z" fill="#15C65B"/>
</svg>
