<svg width="40" height="40" viewBox="0 0 40 40" fill="none" xmlns="http://www.w3.org/2000/svg">
<g clip-path="url(#clip0_343_71)">
<path d="M18.7578 0.328125C19.5234 -0.109375 20.4688 -0.109375 21.2422 0.328125L34.6641 7.99219L35 8.125V8.19531L38.7422 10.3359C39.7266 10.8984 40.2109 12.0547 39.9219 13.1484C39.6328 14.2422 38.6406 15.0078 37.5078 15.0078H2.50001C1.3672 15.0078 0.375009 14.2422 0.0859461 13.1484C-0.203116 12.0547 0.281259 10.8984 1.26563 10.3359L5.00001 8.19531V8.125L5.34376 8L18.7578 0.328125ZM5.00001 17.5H10V32.5H13.125V17.5H18.125V32.5H21.875V17.5H26.875V32.5H30V17.5H35V32.8359C35.0469 32.8594 35.0938 32.8906 35.1406 32.9219L38.8906 35.4219C39.8047 36.0312 40.2188 37.1719 39.8984 38.2266C39.5781 39.2812 38.6016 40 37.5 40H2.50001C1.39845 40 0.429696 39.2812 0.109384 38.2266C-0.210929 37.1719 0.195321 36.0312 1.1172 35.4219L4.8672 32.9219C4.91407 32.8906 4.96095 32.8672 5.00782 32.8359V17.5H5.00001Z" fill="#15C65B"/>
</g>
<defs>
<clipPath id="clip0_343_71">
<path d="M0 0H40V40H0V0Z" fill="white"/>
</clipPath>
</defs>
</svg>
