<svg width="36" height="40" viewBox="0 0 36 40" fill="none" xmlns="http://www.w3.org/2000/svg">
<g clip-path="url(#clip0_343_99)">
<path d="M17.75 9.63284C17.8281 9.6719 17.8906 9.76565 17.9843 9.76565C18.0703 9.76565 18.2031 9.7344 18.2109 9.64846C18.2265 9.53909 18.0625 9.46877 17.9609 9.4219C17.8281 9.36721 17.6562 9.34377 17.5312 9.41409C17.5 9.42971 17.4687 9.46877 17.4843 9.50002C17.5078 9.60159 17.664 9.58596 17.75 9.63284ZM16.039 9.76565C16.1328 9.76565 16.1953 9.6719 16.2734 9.63284C16.3593 9.58596 16.5156 9.60159 16.5468 9.50784C16.5625 9.47658 16.5312 9.43752 16.5 9.4219C16.375 9.35159 16.2031 9.37502 16.0703 9.42971C15.9687 9.47659 15.8047 9.5469 15.8203 9.65627C15.8281 9.7344 15.9609 9.77346 16.039 9.76565ZM33.3125 31.5469C33.0312 31.2344 32.8984 30.6406 32.75 30.0078C32.6093 29.375 32.4453 28.6953 31.9297 28.2578C31.8281 28.1719 31.7265 28.0938 31.6172 28.0313C31.5156 27.9688 31.4062 27.9141 31.2968 27.875C32.0156 25.7422 31.7343 23.6172 31.0078 21.6953C30.1172 19.3438 28.5625 17.2891 27.375 15.8828C26.039 14.2031 24.7422 12.6094 24.7656 10.2578C24.8047 6.6719 25.164 0.00783509 18.8437 2.25918e-05C10.8437 -0.0156024 12.8437 8.07815 12.7578 10.5625C12.625 12.3906 12.2578 13.8281 11 15.6172C9.5234 17.375 7.44528 20.211 6.46091 23.1719C5.99216 24.5703 5.7734 25.9922 5.97653 27.336C5.46872 27.7891 5.0859 28.4844 4.67965 28.9141C4.35153 29.25 3.87497 29.375 3.35153 29.5625C2.82809 29.75 2.25778 30.0313 1.90622 30.6953C1.74215 31 1.68747 31.3281 1.68747 31.6641C1.68747 31.9688 1.73434 32.2813 1.78122 32.586C1.87497 33.2188 1.97653 33.8125 1.84372 34.211C1.43747 35.336 1.38278 36.1172 1.67184 36.6875C1.96872 37.2578 2.56247 37.5078 3.24215 37.6485C4.59372 37.9297 6.42965 37.8594 7.87497 38.625C9.42184 39.4375 10.9922 39.7266 12.2422 39.4375C13.1484 39.2344 13.8906 38.6875 14.2656 37.8594C15.2422 37.8516 16.3203 37.4375 18.039 37.3438C19.2031 37.25 20.664 37.7578 22.3437 37.6641C22.3906 37.8438 22.4531 38.0235 22.539 38.1875V38.1953C23.1875 39.5 24.3984 40.0938 25.6875 39.9922C26.9843 39.8906 28.3515 39.1328 29.4609 37.8125C30.5234 36.5313 32.2734 36 33.4375 35.2969C34.0156 34.9453 34.4843 34.5078 34.5234 33.8672C34.5547 33.2266 34.1797 32.5156 33.3125 31.5469ZM17.9765 6.82034C18.7422 5.08596 20.6484 5.11721 21.414 6.78909C21.9218 7.89846 21.6953 9.20315 21.0781 9.94534C20.9531 9.88284 20.6172 9.74221 20.0937 9.56252C20.1797 9.46877 20.3359 9.35159 20.3984 9.20315C20.7734 8.28127 20.3828 7.09377 19.6875 7.07034C19.1172 7.03127 18.6015 7.91409 18.7656 8.86721C18.4453 8.71096 18.0312 8.59377 17.75 8.52346C17.6718 7.9844 17.7265 7.38284 17.9765 6.82034ZM14.7968 5.9219C15.5859 5.9219 16.4218 7.03127 16.289 8.53909C16.0156 8.61721 15.7343 8.7344 15.4922 8.89846C15.5859 8.20315 15.2343 7.32815 14.7422 7.36721C14.0859 7.4219 13.9765 9.02346 14.6015 9.56252C14.6797 9.62502 14.75 9.5469 14.1406 9.99221C12.9218 8.85159 13.3203 5.9219 14.7968 5.9219ZM13.7343 10.6641C14.2187 10.3047 14.7968 9.88284 14.8359 9.84377C15.2031 9.50002 15.8906 8.7344 17.0156 8.7344C17.5703 8.7344 18.2343 8.91409 19.039 9.42971C19.5312 9.75002 19.9218 9.77346 20.8047 10.1563C21.4609 10.4297 21.875 10.9141 21.625 11.5781C21.4218 12.1328 20.7656 12.7031 19.8515 12.9922C18.9843 13.2735 18.3047 14.2422 16.8672 14.1563C16.5625 14.1406 16.3203 14.0781 16.1172 13.9922C15.4922 13.7188 15.164 13.1797 14.5547 12.8203C13.8828 12.4453 13.5234 12.0078 13.4062 11.625C13.2968 11.2422 13.4062 10.9219 13.7343 10.6641ZM13.9922 36.7578C13.7812 39.5 10.5625 39.4453 8.10934 38.1641C5.7734 36.9297 2.74997 37.6563 2.13278 36.4531C1.94528 36.086 1.94528 35.461 2.3359 34.3906V34.375C2.5234 33.7813 2.38278 33.125 2.28903 32.5078C2.19528 31.8985 2.1484 31.336 2.35934 30.9453C2.63278 30.4219 3.0234 30.2344 3.51559 30.0625C4.32028 29.7735 4.43747 29.7969 5.04684 29.2891C5.47653 28.8438 5.78903 28.2813 6.16403 27.8828C6.56247 27.4531 6.94528 27.25 7.54684 27.3438C8.17965 27.4375 8.72653 27.875 9.25778 28.5938L10.789 31.375C11.5312 32.9297 14.1562 35.1563 13.9922 36.7578ZM13.8828 34.7344C13.5625 34.2188 13.1328 33.6719 12.7578 33.2031C13.3125 33.2031 13.8672 33.0313 14.0625 32.5078C14.2422 32.0235 14.0625 31.3438 13.4843 30.5625C12.4297 29.1406 10.4922 28.0235 10.4922 28.0235C9.43747 27.3672 8.84372 26.5625 8.57028 25.6875C8.29684 24.8125 8.3359 23.8672 8.54684 22.9375C8.95309 21.1485 9.99997 19.4063 10.6718 18.3125C10.8515 18.1797 10.7343 18.5625 9.99216 19.9375C9.32809 21.1953 8.0859 24.1016 9.78903 26.375C9.83591 24.7578 10.2187 23.1094 10.8672 21.5703C11.8047 19.4297 13.7812 15.7188 13.9375 12.7656C14.0234 12.8281 14.2968 13.0156 14.4218 13.086C14.7812 13.2969 15.0547 13.6094 15.4062 13.8906C16.375 14.6719 17.6328 14.6094 18.7187 13.9844C19.2031 13.711 19.5937 13.3985 19.9609 13.2813C20.7343 13.0391 21.3515 12.6094 21.7031 12.1094C22.3047 14.4844 23.7109 17.9141 24.6093 19.586C25.0859 20.4766 26.039 22.3594 26.4531 24.6328C26.7109 24.625 27 24.6641 27.3047 24.7422C28.3828 21.9531 26.3906 18.9453 25.4843 18.1094C25.1172 17.75 25.1015 17.5938 25.2812 17.6016C26.2656 18.4766 27.5625 20.2344 28.0312 22.211C28.25 23.1172 28.289 24.0625 28.0625 25C29.3437 25.5313 30.8672 26.3985 30.4609 27.7188C30.289 27.711 30.2109 27.7188 30.1328 27.7188C30.3828 26.9297 29.8281 26.3438 28.3515 25.6797C26.8203 25.0078 25.539 25.0078 25.3593 26.6563C24.414 26.9844 23.9297 27.8047 23.6875 28.7891C23.4687 29.6641 23.4062 30.7188 23.3437 31.9063C23.3047 32.5078 23.0625 33.3125 22.8125 34.1719C20.3047 35.961 16.8203 36.7422 13.8828 34.7344ZM33.9922 33.836C33.9218 35.1485 30.7734 35.3906 29.0547 37.4688C28.0234 38.6953 26.7578 39.375 25.6484 39.461C24.539 39.5469 23.5781 39.086 23.0156 37.9531C22.6484 37.086 22.8281 36.1485 23.1015 35.1172C23.3906 34.0078 23.8203 32.8672 23.875 31.9453C23.9375 30.7578 24.0078 29.7188 24.2031 28.9219C24.4062 28.1172 24.7187 27.5781 25.2734 27.2735C25.2968 27.2578 25.3281 27.25 25.3515 27.2344C25.414 28.2656 25.9218 29.3125 26.8203 29.5391C27.8047 29.7969 29.2187 28.9531 29.8203 28.2656C30.5234 28.2422 31.0468 28.1953 31.5859 28.6641C32.3593 29.3281 32.1406 31.0313 32.9218 31.9141C33.75 32.8203 34.0156 33.4375 33.9922 33.836ZM14.039 11.6172C14.1953 11.7656 14.4062 11.9688 14.664 12.1719C15.1797 12.5781 15.8984 13 16.7968 13C17.7031 13 18.5547 12.5391 19.2812 12.1563C19.664 11.9531 20.1328 11.6094 20.4375 11.3438C20.7422 11.0781 20.8984 10.8516 20.6797 10.8281C20.4609 10.8047 20.4765 11.0313 20.2109 11.2266C19.8672 11.4766 19.4531 11.8047 19.125 11.9922C18.5468 12.3203 17.6015 12.7891 16.789 12.7891C15.9765 12.7891 15.3281 12.4141 14.8437 12.0313C14.6015 11.836 14.3984 11.6406 14.2422 11.4922C14.125 11.3828 14.0937 11.1328 13.9062 11.1094C13.7968 11.1016 13.7656 11.3985 14.039 11.6172Z" fill="#15C65B"/>
</g>
<defs>
<clipPath id="clip0_343_99">
<path d="M0.5 0H35.5V40H0.5V0Z" fill="white"/>
</clipPath>
</defs>
</svg>
