<svg width="45" height="40" viewBox="0 0 45 40" fill="none" xmlns="http://www.w3.org/2000/svg">
<path d="M45 40H0V0H45V40Z" stroke="#E5E7EB"/>
<path d="M19.5 36.8359C20.3438 37.1328 21.25 36.5156 21.25 35.625V6.14062C21.25 5.8125 21.125 5.48437 20.8594 5.28125C19.3281 4.0625 15.8125 2.5 11.25 2.5C7.30469 2.5 3.61719 3.53906 1.41406 4.38281C0.53125 4.72656 0 5.60156 0 6.54688V35.4766C0 36.4062 1 37.0547 1.88281 36.7656C4.34375 35.9453 8.24219 35 11.25 35C13.8984 35 17.4219 36.0938 19.5 36.8359ZM25.5 36.8359C27.5781 36.0938 31.1016 35 33.75 35C36.7578 35 40.6562 35.9453 43.1172 36.7656C44 37.0625 45 36.4062 45 35.4766V6.54688C45 5.60156 44.4688 4.72656 43.5859 4.39062C41.3828 3.53906 37.6953 2.5 33.75 2.5C29.1875 2.5 25.6719 4.0625 24.1406 5.28125C23.8828 5.48437 23.75 5.8125 23.75 6.14062V35.625C23.75 36.5156 24.6641 37.1328 25.5 36.8359Z" fill="#15C65B"/>
</svg>
