<svg width="40" height="36" viewBox="0 0 40 36" fill="none" xmlns="http://www.w3.org/2000/svg">
<path d="M5 3C5 1.61719 3.88281 0.5 2.5 0.5C1.11719 0.5 0 1.61719 0 3V29.25C0 32.7031 2.79688 35.5 6.25 35.5H37.5C38.8828 35.5 40 34.3828 40 33C40 31.6172 38.8828 30.5 37.5 30.5H6.25C5.5625 30.5 5 29.9375 5 29.25V3ZM36.7656 9.76562C37.7422 8.78906 37.7422 7.20312 36.7656 6.22656C35.7891 5.25 34.2031 5.25 33.2266 6.22656L25 14.4609L20.5156 9.97656C19.5391 9 17.9531 9 16.9766 9.97656L8.22656 18.7266C7.25 19.7031 7.25 21.2891 8.22656 22.2656C9.20312 23.2422 10.7891 23.2422 11.7656 22.2656L18.75 15.2891L23.2344 19.7734C24.2109 20.75 25.7969 20.75 26.7734 19.7734L36.7734 9.77344L36.7656 9.76562Z" fill="#15C65B"/>
</svg>
