<svg width="46" height="40" viewBox="0 0 46 40" fill="none" xmlns="http://www.w3.org/2000/svg">
<g clip-path="url(#clip0_343_93)">
<path d="M5.5 0C2.74219 0 0.5 2.24219 0.5 5V27.5C0.5 30.2578 2.74219 32.5 5.5 32.5H19.25L18.4141 35H13C11.6172 35 10.5 36.1172 10.5 37.5C10.5 38.8828 11.6172 40 13 40H33C34.3828 40 35.5 38.8828 35.5 37.5C35.5 36.1172 34.3828 35 33 35H27.5859L26.75 32.5H40.5C43.2578 32.5 45.5 30.2578 45.5 27.5V5C45.5 2.24219 43.2578 0 40.5 0H5.5ZM40.5 5V22.5H5.5V5H40.5Z" fill="#15C65B"/>
</g>
<defs>
<clipPath id="clip0_343_93">
<path d="M0.5 0H45.5V40H0.5V0Z" fill="white"/>
</clipPath>
</defs>
</svg>
