<svg width="31" height="24" viewBox="0 0 31 24" fill="none" xmlns="http://www.w3.org/2000/svg">
<g clip-path="url(#clip0_160_100)">
<path d="M19.225 0.0558575C18.4281 -0.17383 17.5984 0.290233 17.3687 1.08711L11.3687 22.0871C11.1391 22.884 11.6031 23.7137 12.4 23.9434C13.1969 24.173 14.0266 23.709 14.2562 22.9121L20.2562 1.91211C20.4859 1.11523 20.0219 0.285545 19.225 0.0558575ZM23.0031 5.68554C22.4172 6.27148 22.4172 7.22305 23.0031 7.80898L27.189 11.9996L22.9984 16.1902C22.4125 16.7762 22.4125 17.7277 22.9984 18.3137C23.5844 18.8996 24.5359 18.8996 25.1219 18.3137L30.3719 13.0637C30.9578 12.4777 30.9578 11.5262 30.3719 10.9402L25.1219 5.69023C24.5359 5.10429 23.5844 5.10429 22.9984 5.69023L23.0031 5.68554ZM8.62655 5.68554C8.04061 5.09961 7.08905 5.09961 6.50311 5.68554L1.25311 10.9355C0.667175 11.5215 0.667175 12.473 1.25311 13.059L6.50311 18.309C7.08905 18.8949 8.04061 18.8949 8.62655 18.309C9.21249 17.723 9.21249 16.7715 8.62655 16.1855L4.43593 11.9996L8.62655 7.80898C9.21249 7.22305 9.21249 6.27148 8.62655 5.68554Z" fill="#15C65B"/>
</g>
<defs>
<clipPath id="clip0_160_100">
<path d="M0.8125 0H30.8125V24H0.8125V0Z" fill="white"/>
</clipPath>
</defs>
</svg>
