<svg width="40" height="40" viewBox="0 0 40 40" fill="none" xmlns="http://www.w3.org/2000/svg">
<path d="M40 40H0V0H40V40Z" stroke="#E5E7EB"/>
<path d="M5 2.5C2.24219 2.5 0 4.74219 0 7.5V12.5C0 15.2578 2.24219 17.5 5 17.5H35C37.7578 17.5 40 15.2578 40 12.5V7.5C40 4.74219 37.7578 2.5 35 2.5H5ZM26.875 8.125C27.3723 8.125 27.8492 8.32254 28.2008 8.67417C28.5525 9.02581 28.75 9.50272 28.75 10C28.75 10.4973 28.5525 10.9742 28.2008 11.3258C27.8492 11.6775 27.3723 11.875 26.875 11.875C26.3777 11.875 25.9008 11.6775 25.5492 11.3258C25.1975 10.9742 25 10.4973 25 10C25 9.50272 25.1975 9.02581 25.5492 8.67417C25.9008 8.32254 26.3777 8.125 26.875 8.125ZM30.625 10C30.625 9.50272 30.8225 9.02581 31.1742 8.67417C31.5258 8.32254 32.0027 8.125 32.5 8.125C32.9973 8.125 33.4742 8.32254 33.8258 8.67417C34.1775 9.02581 34.375 9.50272 34.375 10C34.375 10.4973 34.1775 10.9742 33.8258 11.3258C33.4742 11.6775 32.9973 11.875 32.5 11.875C32.0027 11.875 31.5258 11.6775 31.1742 11.3258C30.8225 10.9742 30.625 10.4973 30.625 10ZM5 22.5C2.24219 22.5 0 24.7422 0 27.5V32.5C0 35.2578 2.24219 37.5 5 37.5H35C37.7578 37.5 40 35.2578 40 32.5V27.5C40 24.7422 37.7578 22.5 35 22.5H5ZM26.875 28.125C27.3723 28.125 27.8492 28.3225 28.2008 28.6742C28.5525 29.0258 28.75 29.5027 28.75 30C28.75 30.4973 28.5525 30.9742 28.2008 31.3258C27.8492 31.6775 27.3723 31.875 26.875 31.875C26.3777 31.875 25.9008 31.6775 25.5492 31.3258C25.1975 30.9742 25 30.4973 25 30C25 29.5027 25.1975 29.0258 25.5492 28.6742C25.9008 28.3225 26.3777 28.125 26.875 28.125ZM31.25 30C31.25 29.5027 31.4475 29.0258 31.7992 28.6742C32.1508 28.3225 32.6277 28.125 33.125 28.125C33.6223 28.125 34.0992 28.3225 34.4508 28.6742C34.8025 29.0258 35 29.5027 35 30C35 30.4973 34.8025 30.9742 34.4508 31.3258C34.0992 31.6775 33.6223 31.875 33.125 31.875C32.6277 31.875 32.1508 31.6775 31.7992 31.3258C31.4475 30.9742 31.25 30.4973 31.25 30Z" fill="#15C65B"/>
</svg>
