<svg width="50" height="40" viewBox="0 0 50 40" fill="none" xmlns="http://www.w3.org/2000/svg">
<g clip-path="url(#clip0_343_86)">
<path d="M30.6875 0.0940723C29.3594 -0.28874 27.9766 0.484697 27.5938 1.81282L17.5938 36.8128C17.2109 38.1409 17.9844 39.5238 19.3125 39.9066C20.6406 40.2894 22.0234 39.5159 22.4062 38.1878L32.4062 3.18782C32.7891 1.8597 32.0156 0.476885 30.6875 0.0940723ZM36.9844 9.47688C36.0078 10.4534 36.0078 12.0394 36.9844 13.0159L43.9609 20.0003L36.9766 26.9847C36 27.9613 36 29.5472 36.9766 30.5238C37.9531 31.5003 39.5391 31.5003 40.5156 30.5238L49.2656 21.7738C50.2422 20.7972 50.2422 19.2113 49.2656 18.2347L40.5156 9.4847C39.5391 8.50813 37.9531 8.50813 36.9766 9.4847L36.9844 9.47688ZM13.0234 9.47688C12.0469 8.50032 10.4609 8.50032 9.48438 9.47688L0.734375 18.2269C-0.242188 19.2034 -0.242188 20.7894 0.734375 21.7659L9.48438 30.5159C10.4609 31.4925 12.0469 31.4925 13.0234 30.5159C14 29.5394 14 27.9534 13.0234 26.9769L6.03906 20.0003L13.0234 13.0159C14 12.0394 14 10.4534 13.0234 9.47688Z" fill="#15C65B"/>
</g>
<defs>
<clipPath id="clip0_343_86">
<path d="M0 0H50V40H0V0Z" fill="white"/>
</clipPath>
</defs>
</svg>
